<svg width="330" height="262" viewBox="0 0 330 262" fill="none" xmlns="http://www.w3.org/2000/svg">
<path d="M238.544 105.731L202.138 70.6675H128.233L91.4605 105.731V70.4911H54.6947L54.6675 140.964L128.233 176.196V123.347L165.006 140.964L201.772 123.347V176.203L275.303 140.97L275.31 70.4911H238.544V105.731Z" fill="#111111"/>
<path d="M128.233 35.2573L54.6675 0.0177002L54.6947 35.2573H128.233Z" fill="#111111"/>
<path d="M275.332 0.0177002L201.76 35.2573H275.305L275.332 0.0177002Z" fill="#111111"/>
<path d="M249.164 224.438H266.682V230.846H250.577V241.149H266.682V249.13H248.548V259.433H278.73V214.055H249.164V224.428V224.438Z" fill="#111111"/>
<path d="M309.857 214.062H289.081V259.44H301.189V246.09H307.486L315.599 259.44H329.131V257.755L319.857 243.365C331.835 235.585 328.455 214.122 309.857 214.062ZM309.857 235.777H301.189V224.435C304.025 224.435 307.002 224.365 309.857 224.435C316.739 224.496 316.406 235.777 309.857 235.777Z" fill="#111111"/>
<path d="M34.7033 259.441H47.0846V213.932H42.7456L23.8658 233.649L5.32913 213.932H0.869019V259.441H13.2504V239.209L23.2705 249.33H24.6226L34.7033 239.209V259.441Z" fill="#111111"/>
<path d="M56.2146 236.821C56.2146 268.264 104.791 268.264 104.791 236.821C104.791 205.378 56.2146 205.449 56.2146 236.821ZM68.6666 236.821C68.6666 220.494 92.4202 220.494 92.4202 236.821C92.4202 253.148 68.6666 253.289 68.6666 236.821Z" fill="#111111"/>
<path d="M142.275 236.296L118.32 213.875H113.92V259.445H126.443V237.144L150.317 259.505H154.646V214.066H142.275V236.296Z" fill="#111111"/>
<path d="M205.865 224.434H217.5V259.439H229.477V224.434H241.041V214.061H205.855V224.434H205.865Z" fill="#111111"/>
<path d="M201.679 245.573H189.964C189.964 251.345 175.15 251.395 175.15 246.097C175.15 242.919 179.076 242.202 183.798 241.94C194.091 241.234 200.851 237.863 200.983 228.005C201.396 208.419 164.585 208.419 164.858 228.005H176.351C176.351 221.971 189.076 222.495 189.479 227.874C189.742 231.315 186.23 232.021 181.962 232.475C172.557 233.454 163.364 234.806 163.364 246.168C163.364 265.219 201.921 265.532 201.659 245.573H201.679Z" fill="#111111"/>
</svg>
